<svg xmlns="http://www.w3.org/2000/svg" width="640" height="75" version="1.2"><path d="M22.7 56H12L30.5 9.4h9.3L58.1 56H47.2l-14-38.7h3.7zm25.2-8.4H22.5v-8.5h25.4zM69 56.8q-2.6 0-4.3-1.8T63 50.7q0-2.6 1.7-4.3 1.7-1.8 4.3-1.8t4.3 1.8q1.7 1.7 1.7 4.3 0 2.5-1.7 4.3T69 56.8m45.6-19.9h-10.7v-7.7h9.8q3.1 0 4.7-1.6 1.8-1.6 1.8-4.3 0-2.5-1.7-4.1-1.6-1.7-4.7-1.7h-9.9v-8h11q4.7 0 8.2 1.8 3.5 1.7 5.4 4.8 2 3.1 2 7.1 0 4.1-2 7.2-1.9 3-5.5 4.8-3.6 1.7-8.4 1.7m-8.3 19.2H95.9V9.5h10.4zm27.3 0h-12.3L106.8 36l9.5-2.6zm10.3 0h-10.8l18.5-46.6h9.4l18.2 46.6h-10.9l-14-38.6h3.7zm25.2-8.5h-25.4v-8.4h25.4zm25.5 8.4h-10.3V9.4h7.4L210 38h-3.7l18.2-28.6h7.5V56h-10.4V26.9l1.9.5-12 18.6h-6.8l-11.9-18.6 1.8-.5zm68.5.8q-5.2 0-9.7-1.8-4.4-1.9-7.8-5.2t-5.2-7.6q-1.9-4.5-1.9-9.6t1.9-9.5q1.8-4.3 5.1-7.5 3.3-3.3 7.7-5.1 4.5-1.9 9.8-1.9 5.2 0 9.6 1.9 4.5 1.8 7.8 5.1 3.4 3.2 5.2 7.6 1.9 4.4 1.9 9.5t-1.9 9.5q-1.8 4.4-5.1 7.7-3.3 3.2-7.8 5.1-4.4 1.8-9.6 1.8m-.1-9.4q4.2 0 7.3-1.9 3.1-1.8 4.9-5.1 1.7-3.4 1.7-7.8 0-3.3-1-5.9-1-2.7-2.9-4.6-1.8-2-4.4-3-2.5-1-5.6-1-4.1 0-7.3 1.8-3.1 1.8-4.8 5.1-1.7 3.2-1.7 7.6 0 3.3.9 6.1 1 2.7 2.8 4.6 1.9 2 4.4 3 2.6 1.1 5.7 1.1m44 9.3q-5.7 0-9.9-1.8-4.1-1.9-7.5-5.8l6.7-6.6q2.3 2.6 5 4 2.8 1.4 6.4 1.4 3.3 0 5.1-1.2t1.8-3.3q0-1.9-1.2-3.1t-3.1-2q-1.9-.9-4.3-1.7-2.3-.8-4.6-1.8-2.4-1-4.3-2.5-1.9-1.6-3.1-3.9-1.2-2.4-1.2-6 0-4.3 2-7.4 2.1-3.1 5.8-4.7t8.5-1.6q4.9 0 9 1.7 4 1.7 6.7 4.7l-6.7 6.7q-2.2-2.2-4.3-3.3-2.1-1-4.9-1-2.7 0-4.2 1-1.6 1-1.6 2.9 0 1.8 1.2 2.9 1.1 1.1 3.1 1.9 1.9.8 4.3 1.6 2.3.8 4.6 1.8 2.3 1.1 4.3 2.7 1.9 1.6 3.1 4.1t1.2 6.1q0 6.6-4.7 10.5-4.8 3.7-13.2 3.7m29.9 0q-2.5 0-4.3-1.7-1.7-1.8-1.7-4.3 0-2.7 1.7-4.4 1.8-1.8 4.3-1.8 2.7 0 4.3 1.8 1.7 1.7 1.7 4.4 0 2.5-1.7 4.3-1.6 1.7-4.3 1.7m49.1 0q-5.2 0-9.7-1.7-4.5-1.9-7.8-5.2t-5.2-7.6q-1.8-4.5-1.8-9.6 0-5 1.8-9.4 1.9-4.4 5.2-7.6 3.3-3.3 7.7-5.1 4.5-1.8 9.7-1.8 5.5 0 9.8 1.8 4.4 1.8 7.6 4.9l-6.9 7q-1.9-2-4.5-3.2-2.6-1.1-6-1.1-3 0-5.6 1.1-2.5 1-4.4 2.9-1.7 1.9-2.8 4.6-1 2.7-1 5.9 0 3.3 1 6.1 1.1 2.7 2.8 4.6 1.9 1.9 4.4 2.9 2.6 1.1 5.6 1.1 3.6 0 6.2-1.1t4.6-3.1l7 7q-3.4 3.1-7.8 4.9-4.3 1.7-9.9 1.7m29.4-.7h-10.8l18.5-46.6h9.4L450.8 56h-11l-14-38.7h3.8zm25.1-8.4h-25.4v-8.5h25.4zm28.4 9.2q-5.8 0-9.9-1.8-4.1-1.9-7.6-5.8l6.8-6.6q2.2 2.5 4.9 4 2.8 1.4 6.4 1.4 3.3 0 5.1-1.2t1.8-3.3q0-1.9-1.1-3.1-1.2-1.2-3.2-2.1-1.9-.8-4.3-1.6-2.3-.8-4.6-1.8-2.3-1.1-4.3-2.6-1.9-1.6-3.1-3.9t-1.2-5.9q0-4.3 2-7.4 2.2-3.1 5.9-4.7 3.6-1.6 8.5-1.6t8.9 1.7q4.1 1.7 6.7 4.7l-6.7 6.6q-2.1-2.1-4.3-3.2-2.1-1.1-4.8-1.1t-4.3 1.1q-1.6 1-1.6 2.9 0 1.8 1.2 2.9t3.1 1.9q2 .7 4.3 1.5 2.4.8 4.7 1.9 2.3 1 4.2 2.7 2 1.6 3.2 4.1 1.1 2.4 1.1 6.1 0 6.6-4.7 10.5-4.8 3.7-13.1 3.7m30.4-.7h-10.8L507 9.5h9.4l18.3 46.6h-11l-14-38.7h3.8zm25.1-8.4H499v-8.5h25.4zm34 8.5h-11.8v-9.1h11.5q4.3 0 7.4-1.7 3.2-1.7 4.9-4.9 1.7-3.3 1.7-7.7t-1.7-7.6q-1.8-3.2-4.9-4.9t-7.4-1.7h-11.8v-9h12q5.3 0 9.7 1.7 4.5 1.6 7.8 4.8 3.3 3.1 5.1 7.4 1.9 4.2 1.9 9.4 0 5-1.9 9.3-1.8 4.3-5.1 7.4t-7.8 4.8q-4.4 1.8-9.6 1.8m-8.4 0h-10.4V9.6H550zm61.6.8q-5.3 0-9.8-1.9-4.4-1.8-7.8-5.1-3.3-3.3-5.2-7.7-1.8-4.4-1.8-9.5t1.8-9.5q1.9-4.4 5.2-7.6 3.3-3.3 7.7-5.1 4.5-1.8 9.8-1.8 5.2 0 9.6 1.8 4.5 1.8 7.8 5.1 3.4 3.2 5.2 7.7 1.9 4.3 1.9 9.5 0 5.1-1.9 9.5-1.8 4.3-5.1 7.6t-7.8 5.1q-4.4 1.9-9.6 1.9m-.1-9.5q4.1 0 7.2-1.8 3.2-1.9 4.9-5.2t1.7-7.7q0-3.3-1-5.9-.9-2.7-2.8-4.7-1.8-1.9-4.4-2.9-2.5-1.1-5.6-1.1-4.2 0-7.4 1.9-3.1 1.7-4.8 5t-1.7 7.7q0 3.3 1 6t2.8 4.7q1.8 1.9 4.4 3 2.6 1 5.7 1" aria-label="A. RAMOS. CASADO" style="fill:#fff"/></svg>